<?xml version="1.0" encoding="UTF-8" standalone="no"?>
<!-- Created with Inkscape (http://www.inkscape.org/) -->

<svg
   xmlns:dc="http://purl.org/dc/elements/1.1/"
   xmlns:cc="http://creativecommons.org/ns#"
   xmlns:rdf="http://www.w3.org/1999/02/22-rdf-syntax-ns#"
   xmlns:svg="http://www.w3.org/2000/svg"
   xmlns="http://www.w3.org/2000/svg"
   xmlns:sodipodi="http://sodipodi.sourceforge.net/DTD/sodipodi-0.dtd"
   xmlns:inkscape="http://www.inkscape.org/namespaces/inkscape"
   width="143.19525mm"
   height="133.28529mm"
   viewBox="0 0 507.38475 472.27072"
   id="svg4499"
   version="1.1"
   inkscape:version="0.91 r13725"
   sodipodi:docname="dbb_steps_blue_arrow.svg">
  <defs
     id="defs4501" />
  <sodipodi:namedview
     id="base"
     pagecolor="#ffffff"
     bordercolor="#666666"
     borderopacity="1.0"
     inkscape:pageopacity="0.0"
     inkscape:pageshadow="2"
     inkscape:zoom="0.98994949"
     inkscape:cx="371.95541"
     inkscape:cy="123.49289"
     inkscape:document-units="px"
     inkscape:current-layer="layer1"
     showgrid="false"
     fit-margin-top="0"
     fit-margin-left="0"
     fit-margin-right="0"
     fit-margin-bottom="0"
     inkscape:window-width="1920"
     inkscape:window-height="1176"
     inkscape:window-x="1680"
     inkscape:window-y="24"
     inkscape:window-maximized="1" />
  <metadata
     id="metadata4504">
    <rdf:RDF>
      <cc:Work
         rdf:about="">
        <dc:format>image/svg+xml</dc:format>
        <dc:type
           rdf:resource="http://purl.org/dc/dcmitype/StillImage" />
        <dc:title></dc:title>
      </cc:Work>
    </rdf:RDF>
  </metadata>
  <g
     inkscape:label="Layer 1"
     inkscape:groupmode="layer"
     id="layer1"
     transform="translate(-72.73619,-65.240276)">
    <path
       style="opacity:1;fill:#2a7fff;fill-opacity:1;fill-rule:nonzero;stroke:none;stroke-width:5;stroke-linecap:round;stroke-linejoin:round;stroke-miterlimit:4;stroke-dasharray:none;stroke-dashoffset:0;stroke-opacity:1"
       d="m 148.00193,72.762228 -67.18452,31.401232 67.18452,31.40124 -7.9167,-21.90837 69.88306,0 a 31.335323,31.335323 0 0 0 29.82505,21.84245 31.335323,31.335323 0 0 0 31.33532,-31.33532 31.335323,31.335323 0 0 0 -31.33532,-31.335322 31.335323,31.335323 0 0 0 -30.24877,23.301882 l -69.45934,0 7.9167,-23.367792 z"
       id="path4371"
       inkscape:connector-curvature="0"
       inkscape:transform-center-x="64.280865" />
    <g
       id="g5157"
       transform="matrix(0.9641638,0,0,0.9641638,10.68781,9.8599155)">
      <path
         inkscape:connector-curvature="0"
         style="opacity:1;fill:#2a7fff;fill-opacity:1;fill-rule:nonzero;stroke:none;stroke-width:5;stroke-linecap:round;stroke-linejoin:round;stroke-miterlimit:4;stroke-dasharray:none;stroke-dashoffset:0;stroke-opacity:1"
         d="m 142.41783,150.24028 -69.68164,32.56836 69.68164,32.56836 -8.21094,-22.72266 72.48048,0 a 32.5,32.5 0 0 0 30.93359,22.6543 32.5,32.5 0 0 0 32.5,-32.5 32.5,32.5 0 0 0 -32.5,-32.5 32.5,32.5 0 0 0 -31.37305,24.16797 l -72.04102,0 8.21094,-24.23633 z"
         id="path4458" />
      <g
         id="text4375"
         style="font-style:normal;font-weight:normal;font-size:57.6620903px;line-height:110.00000238%;font-family:sans-serif;letter-spacing:-2.56275964px;word-spacing:0px;fill:#ffffff;fill-opacity:1;stroke:none;stroke-width:1px;stroke-linecap:butt;stroke-linejoin:miter;stroke-opacity:1">
        <path
           id="path5120"
           style="font-style:normal;font-variant:normal;font-weight:normal;font-stretch:normal;font-family:ReservoirGrunge;-inkscape-font-specification:ReservoirGrunge;fill:#ffffff;fill-opacity:1"
           d="m 230.93437,203.71829 q 0.11533,0.40364 0.57662,1.21091 1.03792,0.57662 2.71012,0.57662 l 13.66592,0 1.44155,-1.44155 q -0.23065,-0.23065 -0.34597,-0.74961 0.0577,-0.40364 0.34597,-0.69195 l 0,-11.53241 q 0.7496,-1.15325 0.7496,-1.96051 0,-1.09558 -0.7496,-2.01818 -0.17299,-6.11218 -0.28831,-12.45501 -0.0577,-1.61454 -0.23065,-6.28517 -0.17299,-3.92102 -0.17299,-6.2275 0,-1.03792 -2.07583,-1.03792 -2.24882,0 -10.89814,0.40363 -0.7496,0.34598 -3.97868,2.42181 -2.94077,1.96051 -7.95737,4.09401 -0.17299,0.51896 -0.34597,1.03792 l 0,7.20776 q 0,1.84519 2.19116,1.84519 0.69194,0 2.13349,-0.4613 1.84519,-0.57662 2.19116,-0.63428 l 1.03792,0.51896 0,26.17858 z"
           inkscape:connector-curvature="0" />
      </g>
    </g>
    <g
       id="g5162"
       transform="matrix(0.9641638,0,0,0.9641638,10.68781,9.8599155)">
      <path
         id="path4379"
         d="m 142.41783,229.43559 -69.68164,32.56836 69.68164,32.56836 -8.21094,-22.7207 72.48048,0 a 32.5,32.5 0 0 0 30.93359,22.65234 32.5,32.5 0 0 0 32.5,-32.5 32.5,32.5 0 0 0 -32.5,-32.5 32.5,32.5 0 0 0 -31.37305,24.16992 l -72.04102,0 8.21094,-24.23828 z"
         style="opacity:1;fill:#2a7fff;fill-opacity:1;fill-rule:nonzero;stroke:none;stroke-width:5;stroke-linecap:round;stroke-linejoin:round;stroke-miterlimit:4;stroke-dasharray:none;stroke-dashoffset:0;stroke-opacity:1"
         inkscape:connector-curvature="0" />
      <g
         id="text4383"
         style="font-style:normal;font-weight:normal;font-size:47.77248383px;line-height:110.00000238%;font-family:sans-serif;letter-spacing:-2.12322164px;word-spacing:0px;fill:#ffffff;fill-opacity:1;stroke:none;stroke-width:1px;stroke-linecap:butt;stroke-linejoin:miter;stroke-opacity:1">
        <path
           id="path5123"
           style="font-style:normal;font-variant:normal;font-weight:normal;font-stretch:normal;font-family:ReservoirGrunge;-inkscape-font-specification:ReservoirGrunge;fill:#ffffff;fill-opacity:1"
           d="m 212.85854,276.61269 q 0,0.23887 0.0478,1.28986 l 0.57327,0.62104 q 13.56739,0.28664 19.87336,0.28664 l 12.51639,0 q 4.34729,0 13.61516,-0.28664 l 0.57327,-0.62104 0,-7.45251 q 0,-0.3344 -0.28664,-0.90767 -0.28663,-0.62105 -0.57327,-0.71659 l -25.7016,0 q -0.66881,-0.23886 -1.48094,-0.47773 l -0.0478,-0.0955 q 0.19109,-0.5255 1.52872,-0.76436 l 18.53573,-3.58294 q 3.15298,-0.62104 5.39829,-2.7708 0.81213,-0.76436 1.9109,-2.38863 1.33763,-1.86312 1.33763,-2.62748 0,0 0,-2.24531 0,-8.59905 -9.98445,-11.32208 -3.39185,-0.8599 -5.54161,-1.05099 -2.00644,-0.0478 -5.97156,-0.14332 -5.39829,-0.14332 -6.16265,-0.14332 -5.44606,0 -10.55772,1.95867 -6.11488,2.29308 -8.26464,6.40152 -1.00322,1.81535 -1.00322,5.06388 0.0955,0.23886 0.28663,0.28664 l 15.23943,0 q 1.09876,0 2.38862,-1.48095 1.62426,-1.81536 2.10199,-2.10199 1.00322,-0.57327 2.53194,-0.62104 -0.47772,0 2.67526,0 4.96834,0 4.96834,2.29308 0,0.71658 -0.90768,1.3854 -0.71659,0.62104 -1.52872,0.81213 l -6.83146,1.81536 q -0.38218,-0.0478 -0.71659,-0.0478 -0.71659,0 -5.54161,1.67204 -1.00322,0.33441 -3.00967,1.05099 -5.5416,2.14977 -8.79013,6.59261 -3.20076,4.44284 -3.20076,10.31885 z"
           inkscape:connector-curvature="0" />
      </g>
    </g>
    <g
       id="g5167"
       transform="matrix(0.9641638,0,0,0.9641638,10.68781,9.8599155)">
      <path
         id="path4387"
         d="m 142.41783,311.46098 -69.68164,32.56836 69.68164,32.56836 -8.21094,-22.72265 72.48048,0 a 32.5,32.5 0 0 0 30.93359,22.65429 32.5,32.5 0 0 0 32.5,-32.5 32.5,32.5 0 0 0 -32.5,-32.5 32.5,32.5 0 0 0 -31.37305,24.16797 l -72.04102,0 8.21094,-24.23633 z"
         style="opacity:1;fill:#2a7fff;fill-opacity:1;fill-rule:nonzero;stroke:none;stroke-width:5;stroke-linecap:round;stroke-linejoin:round;stroke-miterlimit:4;stroke-dasharray:none;stroke-dashoffset:0;stroke-opacity:1"
         inkscape:connector-curvature="0" />
      <g
         id="text4391"
         style="font-style:normal;font-weight:normal;font-size:50.60865784px;line-height:110.00000238%;font-family:sans-serif;letter-spacing:-2.24927378px;word-spacing:0px;fill:#ffffff;fill-opacity:1;stroke:none;stroke-width:1px;stroke-linecap:butt;stroke-linejoin:miter;stroke-opacity:1">
        <path
           id="path5126"
           style="font-style:normal;font-variant:normal;font-weight:normal;font-stretch:normal;font-family:ReservoirGrunge;-inkscape-font-specification:ReservoirGrunge;fill:#ffffff;fill-opacity:1"
           d="m 238.24378,364.64735 q 9.56504,0 15.7899,-2.02434 9.56504,-3.08713 9.56504,-10.52661 0,-5.41512 -5.76939,-9.00834 l 0,-0.96156 q 2.22678,-1.61948 3.13774,-2.73287 1.31582,-1.72069 1.31582,-3.89687 0,-11.43755 -23.9885,-11.43755 -8.90712,0 -12.55095,0.70852 -7.08521,1.36643 -10.57721,5.97182 -1.61947,2.12556 -1.61947,3.84626 0,0.55669 0.65791,0.91095 1.82191,0 5.56695,0.20244 3.74504,0.15183 5.61756,0.15183 3.492,0 5.82,-0.86035 1.36643,-0.60731 4.20052,-1.36644 1.01217,-0.0506 2.328,-0.0506 6.22486,0 6.22486,2.3786 0,0.65791 -0.6073,1.21461 -0.60731,0.50609 -1.31583,0.5567 l -16.14416,0.6073 q -0.5567,0 -1.26522,0.96156 l 0,5.06087 q 0,1.06278 0.30365,3.13774 l 0.65792,0.50608 16.44781,0 q 1.11339,0 2.17617,0.96157 1.06279,0.96156 1.06279,2.02434 0,3.492 -7.84435,3.492 -2.58104,0 -4.60538,-1.06278 -1.21461,-0.65791 -2.63165,-1.97374 -1.1134,-1.06278 -1.46766,-1.06278 l -5.97182,0 q -0.35426,0 -1.11339,-0.15183 -0.75913,-0.20243 -1.11339,-0.20243 -6.4273,0 -7.89495,0.35426 -0.65791,0.15183 -0.65791,1.164 0,3.44139 1.7713,5.76939 1.51826,1.97373 4.85843,3.64382 1.31583,0.80974 3.79565,2.07495 4.35235,1.61948 15.84051,1.61948 z"
           inkscape:connector-curvature="0" />
      </g>
    </g>
    <g
       id="g5172"
       transform="matrix(0.9641638,0,0,0.9641638,10.68781,9.8599155)">
      <path
         id="path4395"
         d="m 142.41783,382.17192 -69.68164,32.56836 69.68164,32.56836 -8.21094,-22.72266 72.48048,0 a 32.5,32.5 0 0 0 30.93359,22.6543 32.5,32.5 0 0 0 32.5,-32.5 32.5,32.5 0 0 0 -32.5,-32.5 32.5,32.5 0 0 0 -31.37305,24.16797 l -72.04102,0 8.21094,-24.23633 z"
         style="opacity:1;fill:#2a7fff;fill-opacity:1;fill-rule:nonzero;stroke:none;stroke-width:5;stroke-linecap:round;stroke-linejoin:round;stroke-miterlimit:4;stroke-dasharray:none;stroke-dashoffset:0;stroke-opacity:1"
         inkscape:connector-curvature="0" />
      <g
         id="text4399"
         style="font-style:normal;font-weight:normal;font-size:50.31552505px;line-height:110.00000238%;font-family:sans-serif;letter-spacing:-2.23624563px;word-spacing:0px;fill:#ffffff;fill-opacity:1;stroke:none;stroke-width:1px;stroke-linecap:butt;stroke-linejoin:miter;stroke-opacity:1">
        <path
           id="path5129"
           style="font-style:normal;font-variant:normal;font-weight:normal;font-stretch:normal;font-family:ReservoirGrunge;-inkscape-font-specification:ReservoirGrunge;fill:#ffffff;fill-opacity:1"
           d="m 240.42931,433.31381 0.60378,0.65411 q 6.69197,0.35221 11.82415,0.35221 0.40253,0 1.15726,-0.0503 0.75473,0 1.15726,0 l 1.10694,-0.956 0,-4.07555 0.50315,-0.6541 q 5.78629,0 6.28944,-0.90568 l 0,-9.76122 -0.6541,-0.6541 -5.63534,-0.60378 q -0.20126,-0.10063 -0.35221,-0.3019 -0.25157,-1.00631 -0.30189,-2.2642 -0.0503,-0.85536 0,-2.26419 0.0503,-1.86168 0.0503,-2.31452 0,-6.44039 -0.35221,-12.9814 -0.3019,-0.50316 -0.956,-0.65411 -1.3082,-0.30189 -8.05048,-0.30189 l -10.61658,0 q -1.71073,0 -3.67303,1.91199 l -20.4281,19.774 0,9.45932 q 0,0.50316 0.3522,1.05663 0.40253,0.50315 0.90568,0.50315 l 25.45966,0 q 0.50316,0 1.05663,0.40253 0.55347,0.35221 0.55347,0.85536 l 0,3.77366 z m -9.81153,-17.10727 q 0.15095,-0.60379 0.35221,-0.80505 l 7.84922,-7.54733 q 0.40252,-0.40252 1.25789,-0.40252 l 0,8.55363 q -0.60379,0.65411 -1.86168,0.65411 l -6.94354,0 q -0.25158,0 -0.60379,-0.3019 -0.0503,-0.0503 -0.0503,-0.15094 z"
           inkscape:connector-curvature="0" />
      </g>
    </g>
    <g
       id="g5177"
       transform="matrix(0.9641638,0,0,0.9641638,10.68781,9.8599155)">
      <path
         id="path4403"
         d="m 142.41783,465.60942 -69.68164,32.56836 69.68164,32.56836 -8.21094,-22.7207 72.48243,0 a 32.5,32.5 0 0 0 30.93164,22.65234 32.5,32.5 0 0 0 32.5,-32.5 32.5,32.5 0 0 0 -32.5,-32.5 32.5,32.5 0 0 0 -31.37305,24.16992 l -72.04102,0 8.21094,-24.23828 z"
         style="opacity:1;fill:#2a7fff;fill-opacity:1;fill-rule:nonzero;stroke:none;stroke-width:5;stroke-linecap:round;stroke-linejoin:round;stroke-miterlimit:4;stroke-dasharray:none;stroke-dashoffset:0;stroke-opacity:1"
         inkscape:connector-curvature="0" />
      <g
         id="text4407"
         style="font-style:normal;font-weight:normal;font-size:48.61980438px;line-height:110.00000238%;font-family:sans-serif;letter-spacing:-2.16088033px;word-spacing:0px;fill:#ffffff;fill-opacity:1;stroke:none;stroke-width:1px;stroke-linecap:butt;stroke-linejoin:miter;stroke-opacity:1">
        <path
           id="path5132"
           style="font-style:normal;font-variant:normal;font-weight:normal;font-stretch:normal;font-family:ReservoirGrunge;-inkscape-font-specification:ReservoirGrunge;fill:#ffffff;fill-opacity:1"
           d="m 213.93453,506.52361 q 0,1.94479 1.26411,3.93821 3.35477,5.29955 11.42566,7.00125 4.52164,0.97239 13.95388,0.97239 9.04328,0 14.78042,-2.33375 8.16813,-3.30614 8.16813,-10.98807 0,-7.29297 -7.43883,-10.64774 -5.54266,-2.52823 -13.85665,-2.52823 -1.94479,0 -5.78575,0.34034 -3.84097,0.29172 -5.78576,0.29172 -1.2155,0 -1.2155,-0.58344 0,-1.55583 1.26412,-1.55583 l 13.71078,0 q 5.29956,0 15.75282,-0.29172 l 0.63206,-0.63206 q 0.0486,-0.38896 0.19448,-1.70169 0.0972,-1.11826 0.0972,-1.75032 0,-4.71612 -0.43758,-5.25094 -0.43758,-0.38895 -1.40998,-0.38895 l -37.29139,0 q -2.33375,0 -2.9658,0.68067 -0.58344,0.63206 -1.60446,9.38363 -1.02101,8.21674 -1.02101,10.35601 0,0.2431 0.0486,0.82654 l 0.63205,0.29172 12.44667,0 q -0.29171,0 1.75032,-0.53482 1.45859,-0.38896 4.37578,-0.38896 4.4244,0 6.32057,0.43758 4.03545,0.87516 4.03545,3.79235 0,3.74372 -8.55709,3.74372 -2.86857,0 -5.49404,-1.26411 -0.38895,-0.19448 -1.50721,-1.40998 -0.92378,-1.02101 -1.55583,-1.02101 l -13.66217,0 q -1.26411,0 -1.26411,1.21549 z"
           inkscape:connector-curvature="0" />
      </g>
    </g>
    <g
       id="g5182"
       transform="matrix(0.9641638,0,0,0.9641638,10.68781,9.8599155)">
      <path
         id="path4411"
         d="m 452.41783,69.119467 -69.68164,32.568363 69.68164,32.57032 -8.21094,-22.72267 72.48048,0 a 32.5,32.5 0 0 0 30.93359,22.65237 32.5,32.5 0 0 0 32.5,-32.50002 32.5,32.5 0 0 0 -32.5,-32.500003 32.5,32.5 0 0 0 -31.37305,24.16992 l -72.04102,0 8.21094,-24.23828 z"
         style="opacity:1;fill:#2a7fff;fill-opacity:1;fill-rule:nonzero;stroke:none;stroke-width:5;stroke-linecap:round;stroke-linejoin:round;stroke-miterlimit:4;stroke-dasharray:none;stroke-dashoffset:0;stroke-opacity:1"
         inkscape:connector-curvature="0" />
      <g
         id="text4415"
         style="font-style:normal;font-weight:normal;font-size:52.11615372px;line-height:110.00000238%;font-family:sans-serif;letter-spacing:-2.31627369px;word-spacing:0px;fill:#ffffff;fill-opacity:1;stroke:none;stroke-width:1px;stroke-linecap:butt;stroke-linejoin:miter;stroke-opacity:1">
        <path
           id="path5135"
           style="font-style:normal;font-variant:normal;font-weight:normal;font-stretch:normal;font-family:ReservoirGrunge;-inkscape-font-specification:ReservoirGrunge;fill:#ffffff;fill-opacity:1"
           d="m 548.87721,122.91435 q 10.0063,0 16.20813,-2.29311 9.22456,-3.43967 9.22456,-11.6219 0,-7.71319 -8.59917,-10.944395 -5.83701,-2.240994 -15.11368,-2.240994 -1.77195,0 -5.31585,0.521161 -3.49178,0.521162 -5.26373,0.521162 -0.57328,0 -0.57328,-0.364813 0,-1.407136 2.08464,-3.283318 2.13677,-1.928298 3.80448,-1.928298 l 5.52432,0 q 1.56348,0 4.5341,2.605808 l 16.93775,0 q 0.36481,0 0.36481,-0.781742 0,-0.938091 -0.36481,-1.824066 -2.29311,-5.576428 -8.65128,-7.921655 -4.37776,-1.615601 -12.03883,-1.980414 -4.48199,-0.208464 -4.37776,-0.208464 -7.50472,0 -14.8531,2.97062 -6.25394,2.553692 -8.91186,7.556843 -2.34523,4.429873 -2.34523,11.621905 0,2.03253 0.0521,3.2312 0.0521,1.45925 0.9381,3.64813 0.83385,1.98041 1.82406,3.33543 3.8566,5.31585 11.46555,7.60896 2.29312,0.72963 3.64814,1.04232 2.39734,0.6254 3.64813,0.67751 1.77195,0.0521 6.1497,0.0521 z m -8.80763,-13.8629 q 0,-3.80448 7.50473,-3.80448 7.55684,0 7.55684,3.75237 0,3.80448 -7.71319,3.80448 -2.65792,0 -4.58622,-0.67751 -2.76216,-0.99021 -2.76216,-3.07486 z"
           inkscape:connector-curvature="0" />
      </g>
    </g>
    <g
       id="g5187"
       transform="matrix(0.9641638,0,0,0.9641638,10.68781,9.8599155)">
      <path
         id="path4419"
         d="m 452.41783,139.83045 -69.68164,32.5683 69.68164,32.5684 -8.21094,-22.7207 72.48243,0 a 32.5,32.5 0 0 0 30.93164,22.6523 32.5,32.5 0 0 0 32.5,-32.5 32.5,32.5 0 0 0 -32.5,-32.5 32.5,32.5 0 0 0 -31.37305,24.1699 l -72.04102,0 8.21094,-24.2382 z"
         style="opacity:1;fill:#2a7fff;fill-opacity:1;fill-rule:nonzero;stroke:none;stroke-width:5;stroke-linecap:round;stroke-linejoin:round;stroke-miterlimit:4;stroke-dasharray:none;stroke-dashoffset:0;stroke-opacity:1"
         inkscape:connector-curvature="0" />
      <g
         id="text4423"
         style="font-style:normal;font-weight:normal;font-size:50.30597305px;line-height:110.00000238%;font-family:sans-serif;letter-spacing:-2.23582101px;word-spacing:0px;fill:#ffffff;fill-opacity:1;stroke:none;stroke-width:1px;stroke-linecap:butt;stroke-linejoin:miter;stroke-opacity:1">
        <path
           id="path5138"
           style="font-style:normal;font-variant:normal;font-weight:normal;font-stretch:normal;font-family:ReservoirGrunge;-inkscape-font-specification:ReservoirGrunge;fill:#ffffff;fill-opacity:1"
           d="m 528.80224,192.01055 q 0,0.90551 0.15091,1.60979 l 0.30184,0.30184 18.86474,0 q 0.35214,0 0.95581,-0.60367 1.30796,-4.22571 3.67234,-7.59621 1.50918,-2.21346 5.73488,-6.23794 3.92387,-3.26989 7.84773,-6.59008 5.68458,-4.98029 5.68458,-7.24406 l 0,-10.06119 q -5.33244,-0.35215 -13.07956,-0.35215 l -8.5017,0 q -4.37662,0 -13.23048,0.20123 -8.85385,0.15092 -13.28077,0.15092 -0.95582,0.55336 -0.95582,1.25764 l 0,7.84774 0.95582,0.95581 29.22777,0 q 0.25153,0 0.60367,0.30184 l 0.0503,0.15091 -0.0503,0.15092 q -1.6601,1.96193 -4.77907,3.97417 -2.61591,1.60979 -5.28213,3.26989 -6.741,4.57785 -9.75935,7.69682 -5.13121,5.38273 -5.13121,10.81578 z"
           inkscape:connector-curvature="0" />
      </g>
    </g>
    <g
       id="g5192"
       transform="matrix(0.9641638,0,0,0.9641638,10.68781,9.8599155)">
      <path
         id="path4427"
         d="m 452.41783,223.26985 -69.68164,32.5684 69.68164,32.5683 -8.21094,-22.7226 72.48048,0 a 32.5,32.5 0 0 0 30.93359,22.6543 32.5,32.5 0 0 0 32.5,-32.5 32.5,32.5 0 0 0 -32.5,-32.5 32.5,32.5 0 0 0 -31.37305,24.1679 l -72.04102,0 8.21094,-24.2363 z"
         style="opacity:1;fill:#2a7fff;fill-opacity:1;fill-rule:nonzero;stroke:none;stroke-width:5;stroke-linecap:round;stroke-linejoin:round;stroke-miterlimit:4;stroke-dasharray:none;stroke-dashoffset:0;stroke-opacity:1"
         inkscape:connector-curvature="0" />
      <g
         id="text4431"
         style="font-style:normal;font-weight:normal;font-size:53.47802734px;line-height:110.00000238%;font-family:sans-serif;letter-spacing:-2.37680125px;word-spacing:0px;fill:#ffffff;fill-opacity:1;stroke:none;stroke-width:1px;stroke-linecap:butt;stroke-linejoin:miter;stroke-opacity:1">
        <path
           id="path5141"
           style="font-style:normal;font-variant:normal;font-weight:normal;font-stretch:normal;font-family:ReservoirGrunge;-inkscape-font-specification:ReservoirGrunge;fill:#ffffff;fill-opacity:1"
           d="m 520.50194,263.52761 q 0,3.10173 1.49739,5.40128 2.94129,4.54564 9.35865,6.47084 3.68999,1.12304 11.60473,1.81826 3.47608,0.32087 6.73824,0.32087 9.57256,0 16.0434,-2.67391 8.98431,-3.74346 8.98431,-11.87212 0,-2.56694 -1.28347,-4.70606 -0.90913,-1.60435 -3.1552,-3.79694 l 0,-0.37435 q 1.87173,-2.03217 2.62042,-3.26216 1.12304,-1.87173 1.12304,-3.95737 0,-12.51386 -25.0812,-12.51386 l -5.61519,0 q -13.04864,0 -18.5034,4.70606 -0.85564,0.7487 -2.13912,2.03217 l 0,5.3478 q -0.10695,-0.0535 -0.32087,-0.0535 -0.80217,0 -1.01608,0.21392 -0.21391,0.16043 -0.21391,0.85564 0,3.04825 3.68998,6.31041 l 0,0.69522 q -4.33172,3.58302 -4.33172,9.03778 z m 18.71731,-0.21391 q 0,-2.13912 2.94129,-3.1552 2.03217,-0.69522 4.81303,-0.69522 8.98431,0 8.98431,4.11781 0,3.26216 -7.59388,3.26216 -3.04825,0 -5.40129,-0.58826 -3.74346,-0.85565 -3.74346,-2.94129 z m 0.96261,-16.41775 q 0,-1.33696 2.56694,-2.03217 1.76478,-0.42782 3.79694,-0.42782 l 2.40651,0 q 5.98954,0 5.98954,2.51346 0,2.62043 -5.29432,2.62043 -0.53478,0 -1.49739,-0.0535 -0.90912,0 -1.17651,0 -6.79171,0 -6.79171,-2.62042 z"
           inkscape:connector-curvature="0" />
      </g>
    </g>
    <g
       id="g5197"
       transform="matrix(0.9641638,0,0,0.9641638,10.68781,9.8599155)">
      <path
         id="path4435"
         d="m 452.41783,306.70735 -69.68164,32.5684 69.68164,32.5703 -8.21094,-22.7227 72.48048,0 a 32.5,32.5 0 0 0 30.93359,22.6524 32.5,32.5 0 0 0 32.5,-32.5 32.5,32.5 0 0 0 -32.5,-32.5 32.5,32.5 0 0 0 -31.37305,24.1699 l -72.04102,0 8.21094,-24.2383 z"
         style="opacity:1;fill:#2a7fff;fill-opacity:1;fill-rule:nonzero;stroke:none;stroke-width:5;stroke-linecap:round;stroke-linejoin:round;stroke-miterlimit:4;stroke-dasharray:none;stroke-dashoffset:0;stroke-opacity:1"
         inkscape:connector-curvature="0" />
      <g
         id="text4439"
         style="font-style:normal;font-weight:normal;font-size:50.76348877px;line-height:110.00000238%;font-family:sans-serif;letter-spacing:-2.25615501px;word-spacing:0px;fill:#ffffff;fill-opacity:1;stroke:none;stroke-width:1px;stroke-linecap:butt;stroke-linejoin:miter;stroke-opacity:1">
        <path
           id="path5144"
           style="font-style:normal;font-variant:normal;font-weight:normal;font-stretch:normal;font-family:ReservoirGrunge;-inkscape-font-specification:ReservoirGrunge;fill:#ffffff;fill-opacity:1"
           d="m 525.09903,348.76486 q 0,5.73628 8.6298,8.83285 6.34543,2.28436 13.45232,2.28436 27.76763,0 27.76763,-21.72678 0,-9.89888 -8.68056,-15.02599 -7.15765,-4.21337 -17.81798,-4.21337 -9.44201,0 -15.93974,2.28436 -9.5943,3.29962 -9.5943,10.91415 0,7.41147 7.81758,10.60957 5.53322,2.28435 14.21378,2.28435 1.92901,0 5.73627,-0.40611 3.80726,-0.45687 5.73628,-0.45687 0,2.74123 -2.792,4.3149 -2.33512,1.26909 -5.33016,1.26909 -3.45192,0 -6.34544,-1.87825 -3.90879,-0.35535 -8.12216,-0.35535 l -7.10688,0 q -1.62444,0 -1.62444,1.26909 z m 16.44737,-16.29508 q 0,-3.70573 7.41147,-3.70573 7.05613,0 7.05613,3.70573 0,3.65497 -7.10689,3.65497 -7.36071,0 -7.36071,-3.65497 z"
           inkscape:connector-curvature="0" />
      </g>
    </g>
    <g
       id="g5202"
       transform="matrix(0.9641638,0,0,0.9641638,10.68781,9.8599155)">
      <path
         inkscape:connector-curvature="0"
         style="opacity:1;fill:#2a7fff;fill-opacity:1;fill-rule:nonzero;stroke:none;stroke-width:5;stroke-linecap:round;stroke-linejoin:round;stroke-miterlimit:4;stroke-dasharray:none;stroke-dashoffset:0;stroke-opacity:1"
         d="m 452.41783,398.63115 -69.68164,32.5684 69.68164,32.5703 -8.21094,-22.7227 72.48048,0 a 32.5,32.5 0 0 0 30.93359,22.6524 32.5,32.5 0 0 0 32.5,-32.5 32.5,32.5 0 0 0 -32.5,-32.5 32.5,32.5 0 0 0 -31.37305,24.1699 l -72.04102,0 8.21094,-24.2383 z"
         id="path5113" />
      <g
         id="text5115"
         style="font-style:normal;font-weight:normal;font-size:57.6620903px;line-height:110.00000238%;font-family:sans-serif;letter-spacing:-2.56275964px;word-spacing:0px;fill:#ffffff;fill-opacity:1;stroke:none;stroke-width:1px;stroke-linecap:butt;stroke-linejoin:miter;stroke-opacity:1">
        <path
           id="path5147"
           style="font-style:normal;font-variant:normal;font-weight:normal;font-stretch:normal;font-family:ReservoirGrunge;-inkscape-font-specification:ReservoirGrunge;fill:#ffffff;fill-opacity:1"
           d="m 519.38064,431.52464 q 0,12.39735 9.39892,18.27888 7.66906,4.78595 20.87367,4.78595 12.80099,0 20.06641,-5.07426 8.47633,-5.9392 8.47633,-18.16356 0,-22.94951 -29.63832,-22.94951 -13.08929,0 -20.41238,4.90128 -8.76463,5.7662 -8.76463,18.22122 z m 18.74018,-0.57662 q 0,-4.78596 2.94076,-8.0727 2.94077,-3.28674 7.66906,-3.28674 5.13193,0 8.01503,3.45973 2.65246,3.22908 2.65246,8.47633 0,4.90127 -2.94077,8.07269 -2.8831,3.11375 -7.72672,3.11375 -5.07426,0 -7.95737,-3.40206 -2.65245,-3.17142 -2.65245,-8.361 z"
           inkscape:connector-curvature="0" />
      </g>
    </g>
    <g
       id="g5207"
       transform="matrix(0.9641638,0,0,0.9641638,10.68781,9.8599155)">
      <path
         id="path4220"
         d="m 452.41783,472.37229 -69.68164,32.5684 69.68164,32.5703 -8.21094,-22.7227 72.48048,0 a 32.5,32.5 0 0 0 30.93359,22.6524 32.5,32.5 0 0 0 32.5,-32.5 32.5,32.5 0 0 0 -32.5,-32.5 32.5,32.5 0 0 0 -31.37305,24.1699 l -72.04102,0 8.21094,-24.2383 z"
         style="opacity:1;fill:#2a7fff;fill-opacity:1;fill-rule:nonzero;stroke:none;stroke-width:5;stroke-linecap:round;stroke-linejoin:round;stroke-miterlimit:4;stroke-dasharray:none;stroke-dashoffset:0;stroke-opacity:1"
         inkscape:connector-curvature="0" />
      <text
         xml:space="preserve"
         style="font-style:normal;font-weight:normal;font-size:45.26758194px;line-height:110.00000238%;font-family:sans-serif;letter-spacing:-2.01189256px;word-spacing:0px;fill:#ffffff;fill-opacity:1;stroke:none;stroke-width:1px;stroke-linecap:butt;stroke-linejoin:miter;stroke-opacity:1"
         x="523.59003"
         y="520.88428"
         id="text4224"
         sodipodi:linespacing="110%"><tspan
           sodipodi:role="line"
           id="tspan4226"
           x="523.59003"
           y="520.88428"
           style="font-style:normal;font-variant:normal;font-weight:normal;font-stretch:normal;font-family:ReservoirGrunge;-inkscape-font-specification:ReservoirGrunge;fill:#ffffff;fill-opacity:1">A</tspan></text>
    </g>
  </g>
</svg>
